# xmcd
#
# Track frame offsets: 
#        150
#        13967
#        26525
#        41317
#        53820
#        64692
#        75317
#        83795
#        94420
#        107877
#        118790
#        127795
#        140125
#        152585
#        166082
#        179100
#        192645
#
# Disc length: 2696 seconds
#
# Revision: 5
# Processed by: cddbd v1.5.2PL0 Copyright (c) Steve Scherf et al.
# Submitted via: ExactAudioCopy v0.95b4
#
DISCID=e30a8611
DTITLE=The Coasters - The Very Best of
DYEAR=1994
DGENRE=Pop
TTITLE0=Riot in Cell Block No 9
TTITLE1=Smokey Joe's Cafe
TTITLE2=Down in Mexico
TTITLE3=Searchin'
TTITLE4=Idol with the Golden Head
TTITLE5=Young Blood
TTITLE6=Yakety Yak
TTITLE7=Charlie Brown
TTITLE8=Along Came Jones
TTITLE9=That Is Rock'n'roll
TTITLE10=I'm a Hog for You
TTITLE11=Poison Ivy
TTITLE12=What About Us
TTITLE13=Run Red Run
TTITLE14=Little Egypt
TTITLE15=Shoppin' for Clothes
TTITLE16=Sorry But I'm Gonna Pass
EXTD=
EXTT0=
EXTT1=
EXTT2=
EXTT3=
EXTT4=
EXTT5=
EXTT6=
EXTT7=
EXTT8=
EXTT9=
EXTT10=
EXTT11=
EXTT12=
EXTT13=
EXTT14=
EXTT15=
EXTT16=
PLAYORDER=
